<mxfile host="Electron" modified="2024-02-07T10:01:38.051Z" agent="Mozilla/5.0 (Windows NT 10.0; Win64; x64) AppleWebKit/537.36 (KHTML, like Gecko) draw.io/22.1.16 Chrome/120.0.6099.109 Electron/28.1.0 Safari/537.36" etag="Ylk4e-9hIz-u0dfuzAIC" version="22.1.16" type="device">
  <diagram name="Page-1" id="iv8j8tps5GydoAFlXTjF">
    <mxGraphModel dx="1050" dy="751" grid="1" gridSize="10" guides="1" tooltips="1" connect="1" arrows="1" fold="1" page="1" pageScale="1" pageWidth="827" pageHeight="1169" math="0" shadow="0">
      <root>
        <mxCell id="0" />
        <mxCell id="1" parent="0" />
        <mxCell id="JI_fsSQAs-03iZ_jbYWL-5" value="User&lt;br style=&quot;font-size: 16px;&quot;&gt;" style="swimlane;fontStyle=0;childLayout=stackLayout;horizontal=1;startSize=26;fillColor=#e1d5e7;horizontalStack=0;resizeParent=1;resizeParentMax=0;resizeLast=0;collapsible=1;marginBottom=0;whiteSpace=wrap;html=1;fontSize=16;fontFamily=Comic Sans MS;strokeColor=#9673a6;" vertex="1" parent="1">
          <mxGeometry x="50" y="210" width="230" height="180" as="geometry" />
        </mxCell>
        <mxCell id="JI_fsSQAs-03iZ_jbYWL-6" value="Id_User" style="text;strokeColor=none;fillColor=none;align=left;verticalAlign=top;spacingLeft=4;spacingRight=4;overflow=hidden;rotatable=0;points=[[0,0.5],[1,0.5]];portConstraint=eastwest;whiteSpace=wrap;html=1;fontStyle=4" vertex="1" parent="JI_fsSQAs-03iZ_jbYWL-5">
          <mxGeometry y="26" width="230" height="26" as="geometry" />
        </mxCell>
        <mxCell id="JI_fsSQAs-03iZ_jbYWL-7" value="Username" style="text;strokeColor=none;fillColor=none;align=left;verticalAlign=top;spacingLeft=4;spacingRight=4;overflow=hidden;rotatable=0;points=[[0,0.5],[1,0.5]];portConstraint=eastwest;whiteSpace=wrap;html=1;" vertex="1" parent="JI_fsSQAs-03iZ_jbYWL-5">
          <mxGeometry y="52" width="230" height="26" as="geometry" />
        </mxCell>
        <mxCell id="JI_fsSQAs-03iZ_jbYWL-10" value="password" style="text;strokeColor=none;align=left;fillColor=none;html=1;verticalAlign=middle;whiteSpace=wrap;rounded=0;" vertex="1" parent="JI_fsSQAs-03iZ_jbYWL-5">
          <mxGeometry y="78" width="230" height="30" as="geometry" />
        </mxCell>
        <mxCell id="JI_fsSQAs-03iZ_jbYWL-8" value="email&lt;br&gt;" style="text;strokeColor=none;fillColor=none;align=left;verticalAlign=top;spacingLeft=4;spacingRight=4;overflow=hidden;rotatable=0;points=[[0,0.5],[1,0.5]];portConstraint=eastwest;whiteSpace=wrap;html=1;" vertex="1" parent="JI_fsSQAs-03iZ_jbYWL-5">
          <mxGeometry y="108" width="230" height="72" as="geometry" />
        </mxCell>
        <mxCell id="JI_fsSQAs-03iZ_jbYWL-11" value="Project&lt;br style=&quot;font-size: 16px;&quot;&gt;" style="swimlane;fontStyle=0;childLayout=stackLayout;horizontal=1;startSize=26;fillColor=#e1d5e7;horizontalStack=0;resizeParent=1;resizeParentMax=0;resizeLast=0;collapsible=1;marginBottom=0;whiteSpace=wrap;html=1;fontSize=16;fontFamily=Comic Sans MS;strokeColor=#9673a6;" vertex="1" parent="1">
          <mxGeometry x="590" y="240" width="230" height="108" as="geometry" />
        </mxCell>
        <mxCell id="JI_fsSQAs-03iZ_jbYWL-12" value="Id_Project" style="text;strokeColor=none;fillColor=none;align=left;verticalAlign=top;spacingLeft=4;spacingRight=4;overflow=hidden;rotatable=0;points=[[0,0.5],[1,0.5]];portConstraint=eastwest;whiteSpace=wrap;html=1;fontStyle=4" vertex="1" parent="JI_fsSQAs-03iZ_jbYWL-11">
          <mxGeometry y="26" width="230" height="26" as="geometry" />
        </mxCell>
        <mxCell id="JI_fsSQAs-03iZ_jbYWL-13" value="name" style="text;strokeColor=none;fillColor=none;align=left;verticalAlign=top;spacingLeft=4;spacingRight=4;overflow=hidden;rotatable=0;points=[[0,0.5],[1,0.5]];portConstraint=eastwest;whiteSpace=wrap;html=1;" vertex="1" parent="JI_fsSQAs-03iZ_jbYWL-11">
          <mxGeometry y="52" width="230" height="26" as="geometry" />
        </mxCell>
        <mxCell id="JI_fsSQAs-03iZ_jbYWL-14" value="description" style="text;strokeColor=none;align=left;fillColor=none;html=1;verticalAlign=middle;whiteSpace=wrap;rounded=0;" vertex="1" parent="JI_fsSQAs-03iZ_jbYWL-11">
          <mxGeometry y="78" width="230" height="30" as="geometry" />
        </mxCell>
        <mxCell id="JI_fsSQAs-03iZ_jbYWL-16" value="Task" style="swimlane;fontStyle=0;childLayout=stackLayout;horizontal=1;startSize=26;fillColor=#e1d5e7;horizontalStack=0;resizeParent=1;resizeParentMax=0;resizeLast=0;collapsible=1;marginBottom=0;whiteSpace=wrap;html=1;fontFamily=Comic Sans MS;fontSize=16;strokeColor=#9673a6;" vertex="1" parent="1">
          <mxGeometry x="320" y="510" width="230" height="170" as="geometry" />
        </mxCell>
        <mxCell id="JI_fsSQAs-03iZ_jbYWL-17" value="Id_Task" style="text;strokeColor=none;fillColor=none;align=left;verticalAlign=top;spacingLeft=4;spacingRight=4;overflow=hidden;rotatable=0;points=[[0,0.5],[1,0.5]];portConstraint=eastwest;whiteSpace=wrap;html=1;fontStyle=4" vertex="1" parent="JI_fsSQAs-03iZ_jbYWL-16">
          <mxGeometry y="26" width="230" height="26" as="geometry" />
        </mxCell>
        <mxCell id="JI_fsSQAs-03iZ_jbYWL-18" value="title" style="text;strokeColor=none;fillColor=none;align=left;verticalAlign=top;spacingLeft=4;spacingRight=4;overflow=hidden;rotatable=0;points=[[0,0.5],[1,0.5]];portConstraint=eastwest;whiteSpace=wrap;html=1;" vertex="1" parent="JI_fsSQAs-03iZ_jbYWL-16">
          <mxGeometry y="52" width="230" height="26" as="geometry" />
        </mxCell>
        <mxCell id="JI_fsSQAs-03iZ_jbYWL-19" value="description" style="text;strokeColor=none;align=left;fillColor=none;html=1;verticalAlign=middle;whiteSpace=wrap;rounded=0;" vertex="1" parent="JI_fsSQAs-03iZ_jbYWL-16">
          <mxGeometry y="78" width="230" height="30" as="geometry" />
        </mxCell>
        <mxCell id="JI_fsSQAs-03iZ_jbYWL-20" value="priorité" style="text;strokeColor=none;fillColor=none;align=left;verticalAlign=top;spacingLeft=4;spacingRight=4;overflow=hidden;rotatable=0;points=[[0,0.5],[1,0.5]];portConstraint=eastwest;whiteSpace=wrap;html=1;" vertex="1" parent="JI_fsSQAs-03iZ_jbYWL-16">
          <mxGeometry y="108" width="230" height="32" as="geometry" />
        </mxCell>
        <mxCell id="JI_fsSQAs-03iZ_jbYWL-21" value="status" style="text;strokeColor=none;align=left;fillColor=none;html=1;verticalAlign=middle;whiteSpace=wrap;rounded=0;" vertex="1" parent="JI_fsSQAs-03iZ_jbYWL-16">
          <mxGeometry y="140" width="230" height="30" as="geometry" />
        </mxCell>
        <mxCell id="JI_fsSQAs-03iZ_jbYWL-22" value="Créer" style="ellipse;whiteSpace=wrap;html=1;" vertex="1" parent="1">
          <mxGeometry x="380" y="210" width="120" height="50" as="geometry" />
        </mxCell>
        <mxCell id="JI_fsSQAs-03iZ_jbYWL-23" value="" style="endArrow=none;html=1;rounded=0;entryX=0;entryY=0.5;entryDx=0;entryDy=0;" edge="1" parent="1" target="JI_fsSQAs-03iZ_jbYWL-22">
          <mxGeometry width="50" height="50" relative="1" as="geometry">
            <mxPoint x="280" y="300" as="sourcePoint" />
            <mxPoint x="330" y="250" as="targetPoint" />
          </mxGeometry>
        </mxCell>
        <mxCell id="JI_fsSQAs-03iZ_jbYWL-24" value="" style="endArrow=none;html=1;rounded=0;exitX=1;exitY=0.5;exitDx=0;exitDy=0;entryX=0;entryY=0.185;entryDx=0;entryDy=0;entryPerimeter=0;" edge="1" parent="1" source="JI_fsSQAs-03iZ_jbYWL-22" target="JI_fsSQAs-03iZ_jbYWL-11">
          <mxGeometry width="50" height="50" relative="1" as="geometry">
            <mxPoint x="510" y="410" as="sourcePoint" />
            <mxPoint x="560" y="360" as="targetPoint" />
          </mxGeometry>
        </mxCell>
        <mxCell id="JI_fsSQAs-03iZ_jbYWL-25" value="1,n" style="text;strokeColor=none;align=center;fillColor=none;html=1;verticalAlign=middle;whiteSpace=wrap;rounded=0;" vertex="1" parent="1">
          <mxGeometry x="260" y="300" width="60" height="30" as="geometry" />
        </mxCell>
        <mxCell id="JI_fsSQAs-03iZ_jbYWL-26" value="1,1" style="text;strokeColor=none;align=center;fillColor=none;html=1;verticalAlign=middle;whiteSpace=wrap;rounded=0;" vertex="1" parent="1">
          <mxGeometry x="530" y="260" width="60" height="30" as="geometry" />
        </mxCell>
        <mxCell id="JI_fsSQAs-03iZ_jbYWL-27" value="appartient" style="ellipse;whiteSpace=wrap;html=1;" vertex="1" parent="1">
          <mxGeometry x="510" y="400" width="120" height="60" as="geometry" />
        </mxCell>
        <mxCell id="JI_fsSQAs-03iZ_jbYWL-28" value="" style="endArrow=none;html=1;rounded=0;exitX=0.75;exitY=0;exitDx=0;exitDy=0;" edge="1" parent="1" source="JI_fsSQAs-03iZ_jbYWL-16">
          <mxGeometry width="50" height="50" relative="1" as="geometry">
            <mxPoint x="510" y="490" as="sourcePoint" />
            <mxPoint x="540" y="460" as="targetPoint" />
            <Array as="points">
              <mxPoint x="530" y="470" />
            </Array>
          </mxGeometry>
        </mxCell>
        <mxCell id="JI_fsSQAs-03iZ_jbYWL-29" value="" style="endArrow=none;html=1;rounded=0;" edge="1" parent="1">
          <mxGeometry width="50" height="50" relative="1" as="geometry">
            <mxPoint x="600" y="398" as="sourcePoint" />
            <mxPoint x="650" y="348" as="targetPoint" />
          </mxGeometry>
        </mxCell>
        <mxCell id="JI_fsSQAs-03iZ_jbYWL-30" value="1,1" style="text;strokeColor=none;align=center;fillColor=none;html=1;verticalAlign=middle;whiteSpace=wrap;rounded=0;" vertex="1" parent="1">
          <mxGeometry x="450" y="480" width="60" height="30" as="geometry" />
        </mxCell>
        <mxCell id="JI_fsSQAs-03iZ_jbYWL-31" value="1,n" style="text;strokeColor=none;align=center;fillColor=none;html=1;verticalAlign=middle;whiteSpace=wrap;rounded=0;" vertex="1" parent="1">
          <mxGeometry x="630" y="348" width="60" height="30" as="geometry" />
        </mxCell>
        <mxCell id="JI_fsSQAs-03iZ_jbYWL-32" value="Diagramme base de donnée relationnelle" style="text;strokeColor=none;align=center;fillColor=none;html=1;verticalAlign=middle;whiteSpace=wrap;rounded=0;fontSize=26;fontStyle=1;fontFamily=Comic Sans MS;" vertex="1" parent="1">
          <mxGeometry x="190" y="50" width="540" height="30" as="geometry" />
        </mxCell>
      </root>
    </mxGraphModel>
  </diagram>
</mxfile>
